<svg xmlns="http://www.w3.org/2000/svg" viewBox="0 0 580 118">
  <g id="Artboard-Copy-118" fill="none" fill-rule="evenodd">
    <path id="Shape" fill="#FFFFFF" fill-rule="nonzero" d="M26.756 92.44c-6.673 0-11.904-.477-15.691-1.43-3.788-.953-6.47-2.513-8.046-4.68-1.577-2.167-2.23-5.113-1.96-8.84.12-1.647.369-3.293.748-4.94l.597-2.86c1.045-4.853 2.656-8.537 4.831-11.05 2.176-2.513 5.424-4.29 9.746-5.33s10.427-1.56 18.313-1.56h2.6c6.154 0 10.93.455 14.331 1.365 3.401.91 5.806 2.405 7.215 4.485h.39l1.093-6.11c.287-1.56.445-2.557.477-2.99.15-2.08-.173-3.597-.97-4.55-.798-.953-2.074-1.582-3.829-1.885-1.755-.303-4.365-.455-7.832-.455h-2.6c-4.073 0-7.186.195-9.337.585-2.152.39-3.67.997-4.552 1.82-.883.823-1.508 1.972-1.875 3.445l-.158.39H8.667l.401-1.95c1.052-4.94 2.903-8.667 5.555-11.18 2.653-2.513 6.68-4.268 12.082-5.265 5.402-.997 13.087-1.495 23.053-1.495h3.12c8.234 0 14.586.542 19.057 1.625 4.472 1.083 7.666 3.055 9.582 5.915 1.916 2.86 2.673 7.063 2.271 12.61-.163 2.253-.715 5.677-1.654 10.27L75.061 91.4h-22.49l1.679-7.02h-.26c-1.97 2.08-3.864 3.683-5.679 4.81-1.815 1.127-4.17 1.95-7.069 2.47-2.897.52-6.816.78-11.756.78h-2.73zm13.098-13.91c4.68 0 8.16-.195 10.442-.585 2.282-.39 3.889-1.04 4.822-1.95.932-.91 1.594-2.275 1.986-4.095l.336-1.04c.118-.433.205-1.04.262-1.82.087-1.213-.235-2.145-.968-2.795-.733-.65-2.152-1.105-4.256-1.365-2.105-.26-5.237-.39-9.397-.39h-1.43c-4.68 0-8.184.217-10.512.65-2.328.433-3.958 1.105-4.89 2.015-.933.91-1.596 2.275-1.988 4.095l-.205 1.04-.224 1.3c-.094 1.3.309 2.318 1.208 3.055.9.737 2.403 1.235 4.507 1.495 2.105.26 5.107.39 9.007.39h1.3z"/>
    <path id="Path" fill="#FFFFFF" fill-rule="nonzero" d="M94.673 29h22.88l-2.267 9.75h.26c2.102-2.687 4.357-4.81 6.767-6.37 2.41-1.56 5.221-2.687 8.435-3.38 3.213-.693 7.117-1.04 11.71-1.04h1.17c6.76 0 12.13.65 16.109 1.95 3.98 1.3 6.83 3.51 8.555 6.63 1.723 3.12 2.39 7.367 2.001 12.74-.163 2.253-.596 5.243-1.3 8.97l-7.212 33.15h-22.88l6.896-32.37c.392-1.82.635-3.38.729-4.68.182-2.513-.158-4.398-1.02-5.655-.863-1.257-2.275-2.102-4.237-2.535-1.961-.433-4.72-.65-8.272-.65h-1.43c-4.507 0-8.141.52-10.904 1.56-2.762 1.04-4.891 2.622-6.388 4.745-1.498 2.123-2.635 4.962-3.412 8.515L104.19 91.4h-22.88L94.673 29z"/>
    <polygon id="Path" fill="#FFFFFF" fill-rule="nonzero" points="168.031 91.4 181.393 29 204.273 29 190.911 91.4"/>
    <path id="Path" fill="#FFFFFF" fill-rule="nonzero" d="M210.913 29h22.88l-2.267 9.75h.26c2.585-3.38 5.853-6.023 9.805-7.93 3.951-1.907 8.917-2.86 14.897-2.86H330.178c6.154 0 10.985.607 14.493 1.82 3.51 1.213 5.983 3.25 7.423 6.11 1.439 2.86 1.977 6.803 1.612 11.83-.17 2.34-.727 5.85-1.673 10.53l-7.082 33.15h-22.88l7.035-32.5c.392-1.82.635-3.38.73-4.68.169-2.34-.112-4.138-.845-5.395-.732-1.257-1.86-2.123-3.386-2.6-1.526-.477-3.588-.715-6.188-.715H245.987c-4.507 0-7.965.477-10.374 1.43-2.41.953-4.228 2.427-5.455 4.42-1.228 1.993-2.243 4.94-3.046 8.84l-6.68 31.2h-22.88l13.36-62.4z"/>
    <path id="Shape" fill="#FFFFFF" fill-rule="nonzero" d="M388.266 92.44c-8.58 0-15.318-.607-20.213-1.82-4.896-1.213-8.44-3.423-10.635-6.63-2.194-3.207-3.075-7.8-2.641-13.78.245-3.38.684-6.457 1.319-9.23l.439-2.47c1.84-8.667 4.392-15.167 7.653-19.5 3.26-4.333 7.567-7.258 12.92-8.775 5.354-1.517 12.71-2.275 22.07-2.275h4.03c8.06 0 14.498.563 19.313 1.69 4.815 1.127 8.329 3.163 10.542 6.11 2.213 2.947 3.128 7.063 2.745 12.35-.182 2.513-.525 4.853-1.029 7.02l-2.006 9.75h-55.12l-.41 2.08c-.355 1.3-.563 2.383-.626 3.25-.164 2.253.257 3.922 1.262 5.005 1.005 1.083 2.513 1.798 4.525 2.145 2.011.347 4.967.52 8.867.52h2.47c4.247 0 7.492-.238 9.737-.715 2.244-.477 3.858-1.213 4.84-2.21.982-.997 1.67-2.405 2.061-4.225l.019-.26h21.45l-.401 1.95c-1.17 5.373-3.266 9.49-6.29 12.35-3.024 2.86-7.112 4.853-12.264 5.98-5.151 1.127-11.887 1.69-20.207 1.69h-4.42zm25.474-39.39l.43-2.34c.217-.607.366-1.473.448-2.6.126-1.733-.212-3.055-1.013-3.965-.8-.91-2.162-1.56-4.083-1.95-1.922-.39-4.66-.585-8.213-.585h-2.6c-4.593 0-8.107.347-10.54 1.04-2.434.693-4.227 1.82-5.38 3.38-1.153 1.56-2.06 3.9-2.719 7.02h33.67z"/>
    <polygon id="Path" fill="#FF4B4B" fill-rule="nonzero" points="443.898 21.68 447.834 4 470.714 4 466.908 21.68"/>
  </g>
</svg>
