<?xml version="1.0" encoding="UTF-8"?>
<svg width="580px" height="118px" viewBox="0 0 580 118" version="1.1" xmlns="http://www.w3.org/2000/svg" xmlns:xlink="http://www.w3.org/1999/xlink">
    <title>Artboard Copy 118</title>
    <g id="Artboard-Copy-118" stroke="none" stroke-width="1" fill="none" fill-rule="evenodd">
        <path d="M26.7559529,92.44 C20.0826196,92.44 14.8521592,91.9633333 11.0645717,91.01 C7.27698427,90.0566667 4.59502296,88.4966667 3.01868782,86.33 C1.44235268,84.1633333 0.789203548,81.2166667 1.05924043,77.49 C1.17855906,75.8433333 1.42787768,74.1966667 1.80719631,72.55 L2.40443392,69.69 C3.44944319,64.8366667 5.05967345,61.1533333 7.23512468,58.64 C9.41057591,56.1266667 12.6593144,54.35 16.9813402,53.31 C21.303366,52.27 27.4077123,51.75 35.2943789,51.75 L37.8943789,51.75 C44.0477123,51.75 48.8247426,52.205 52.2254701,53.115 C55.6261975,54.025 58.0312021,55.52 59.4404838,57.6 L59.8304838,57.6 L60.9232187,51.49 C61.2095907,49.93 61.3684766,48.9333333 61.3998762,48.5 C61.5505945,46.42 61.2271599,44.9033333 60.4295724,43.95 C59.6319849,42.9966667 58.3558478,42.3683333 56.6011608,42.065 C54.8464739,41.7616667 52.2357971,41.61 48.7691305,41.61 L46.1691305,41.61 C42.0957971,41.61 38.9833339,41.805 36.8317409,42.195 C34.6801479,42.585 33.1628551,43.1916667 32.2798625,44.015 C31.3968698,44.8383333 30.7719941,45.9866667 30.4052353,47.46 L30.2469757,47.85 L8.66697566,47.85 L9.06827404,45.9 C10.1195632,40.96 11.9712668,37.2333333 14.6233847,34.72 C17.2755026,32.2066667 21.3026711,30.4516667 26.7048903,29.455 C32.1071095,28.4583333 39.7915524,27.96 49.758219,27.96 L52.878219,27.96 C61.1115524,27.96 67.4639695,28.5016667 71.9354704,29.585 C76.4069713,30.6683333 79.6007696,32.64 81.5168653,35.5 C83.4329611,38.36 84.1900512,42.5633333 83.7881359,48.11 C83.6248578,50.3633333 83.0734673,53.7866667 82.1339645,58.38 L75.0613121,91.4 L52.5713121,91.4 L54.2499862,84.38 L53.9899862,84.38 C52.0192679,86.46 50.1264226,88.0633333 48.3114502,89.19 C46.4964778,90.3166667 44.1401518,91.14 41.2424723,91.66 C38.3447927,92.18 34.4259529,92.44 29.4859529,92.44 L26.7559529,92.44 Z M39.8538813,78.53 C44.5338813,78.53 48.0146778,78.335 50.2962708,77.945 C52.5778638,77.555 54.1849633,76.905 55.1175692,75.995 C56.0501751,75.085 56.7124173,73.72 57.1042958,71.9 L57.4396549,70.86 C57.5577212,70.4266667 57.645014,69.82 57.7015334,69.04 C57.7894524,67.8266667 57.4669616,66.895 56.734061,66.245 C56.0011605,65.595 54.5824634,65.14 52.4779699,64.88 C50.3734763,64.62 47.2412296,64.49 43.0812296,64.49 L41.6512296,64.49 C36.9712296,64.49 33.4671964,64.7066667 31.1391301,65.14 C28.8110638,65.5733333 27.1807277,66.245 26.2481218,67.155 C25.3155159,68.065 24.6532737,69.43 24.2613952,71.25 L24.0560361,72.29 L23.8318372,73.59 C23.7376383,74.89 24.1405158,75.9083333 25.0404697,76.645 C25.9404237,77.3816667 27.4426474,77.88 29.547141,78.14 C31.6516345,78.4 34.6538813,78.53 38.5538813,78.53 L39.8538813,78.53 Z" id="Shape" fill="#FFFFFF" fill-rule="nonzero"></path>
        <path d="M94.6728599,29 L117.55286,29 L115.286368,38.75 L115.546368,38.75 C117.647712,36.0633333 119.903237,33.94 122.312943,32.38 C124.722648,30.82 127.534287,29.6933333 130.74786,29 C133.961433,28.3066667 137.864886,27.96 142.458219,27.96 L143.628219,27.96 C150.388219,27.96 155.757786,28.61 159.736921,29.91 C163.716055,31.21 166.567584,33.42 168.291506,36.54 C170.015429,39.66 170.682712,43.9066667 170.293357,49.28 C170.130079,51.5333333 169.696755,54.5233333 168.993384,58.25 L161.781312,91.4 L138.901312,91.4 L145.796865,59.03 C146.188743,57.21 146.431782,55.65 146.525981,54.35 C146.708099,51.8366667 146.368021,49.9516667 145.505746,48.695 C144.643472,47.4383333 143.231368,46.5933333 141.269434,46.16 C139.307501,45.7266667 136.549867,45.51 132.996534,45.51 L131.566534,45.51 C127.059867,45.51 123.425521,46.03 120.663495,47.07 C117.901469,48.11 115.771861,49.6916667 114.274669,51.815 C112.777477,53.9383333 111.640143,56.7766667 110.862666,60.33 L104.191312,91.4 L81.3113121,91.4 L94.6728599,29 Z" id="Path" fill="#FFFFFF" fill-rule="nonzero"></path>
        <polygon id="Path" fill="#FFFFFF" fill-rule="nonzero" points="168.031312 91.4 181.39286 29 204.27286 29 190.911312 91.4"></polygon>
        <path d="M210.91286,29 L233.79286,29 L231.526368,38.75 L231.786368,38.75 C234.371285,35.37 237.63949,32.7266667 241.590981,30.82 C245.542473,28.9133333 250.508219,27.96 256.488219,27.96 L258.048219,27.96 C265.328219,27.96 321.988219,27.96 328.748219,27.96 L330.178219,27.96 C336.331552,27.96 341.162593,28.5666667 344.671341,29.78 C348.180088,30.9933333 350.654177,33.03 352.093606,35.89 C353.533035,38.75 354.070631,42.6933333 353.706396,47.72 C353.536838,50.06 352.979167,53.57 352.033384,58.25 L344.951312,91.4 L322.071312,91.4 L329.106285,58.9 C329.498163,57.08 329.741202,55.52 329.835401,54.22 C330.004959,51.88 329.723601,50.0816667 328.991326,48.825 C328.259052,47.5683333 327.130185,46.7016667 325.604724,46.225 C324.079264,45.7483333 322.016534,45.51 319.416534,45.51 L318.116534,45.51 C313.696534,45.51 249.799867,45.51 247.286534,45.51 L245.986534,45.51 C241.479867,45.51 238.021994,45.9866667 235.612915,46.94 C233.203836,47.8933333 231.38541,49.3666667 230.157639,51.36 C228.929867,53.3533333 227.914683,56.3 227.112086,60.2 L220.431312,91.4 L197.551312,91.4 L210.91286,29 Z" id="Path" fill="#FFFFFF" fill-rule="nonzero"></path>
        <path d="M388.265953,92.44 C379.685953,92.44 372.948246,91.8333333 368.052831,90.62 C363.157417,89.4066667 359.612555,87.1966667 357.418246,83.99 C355.223937,80.7833333 354.343439,76.19 354.776754,70.21 C355.021672,66.83 355.461276,63.7533333 356.095567,60.98 L356.534545,58.51 C358.375871,49.8433333 360.926865,43.3433333 364.187528,39.01 C367.448191,34.6766667 371.755139,31.7516667 377.108371,30.235 C382.461603,28.7183333 389.818219,27.96 399.178219,27.96 L403.208219,27.96 C411.268219,27.96 417.705733,28.5233333 422.52076,29.65 C427.335788,30.7766667 430.849876,32.8133333 433.063026,35.76 C435.276175,38.7066667 436.191211,42.8233333 435.808136,48.11 C435.626018,50.6233333 435.283127,52.9633333 434.779462,55.13 L432.77297,64.88 L377.65297,64.88 L377.242252,66.96 C376.888053,68.26 376.679554,69.3433333 376.616754,70.21 C376.453476,72.4633333 376.874254,74.1316667 377.879089,75.215 C378.883923,76.2983333 380.392113,77.0133333 382.40366,77.36 C384.415207,77.7066667 387.370981,77.88 391.270981,77.88 L393.740981,77.88 C397.987647,77.88 401.233251,77.6416667 403.47779,77.165 C405.72233,76.6883333 407.335709,75.9516667 408.317928,74.955 C409.300147,73.9583333 409.987196,72.55 410.379075,70.73 L410.397915,70.47 L431.847915,70.47 L431.446616,72.42 C430.277261,77.7933333 428.180631,81.91 425.156727,84.77 C422.132822,87.63 418.045051,89.6233333 412.893412,90.75 C407.741772,91.8766667 401.005953,92.44 392.685953,92.44 L388.265953,92.44 Z M413.74018,53.05 L414.169738,50.71 C414.387031,50.1033333 414.536497,49.2366667 414.618136,48.11 C414.743734,46.3766667 414.40617,45.055 413.605443,44.145 C412.804715,43.235 411.443481,42.585 409.521741,42.195 C407.600001,41.805 404.862464,41.61 401.30913,41.61 L398.70913,41.61 C394.115797,41.61 390.602344,41.9566667 388.168771,42.65 C385.735199,43.3433333 383.941893,44.47 382.788854,46.03 C381.635815,47.59 380.729591,49.93 380.07018,53.05 L413.74018,53.05 Z" id="Shape" fill="#FFFFFF" fill-rule="nonzero"></path>
        <polygon id="Path" fill="#FF4B4B" fill-rule="nonzero" points="443.89794 21.68 447.834183 4 470.714183 4 466.90794 21.68"></polygon>
    </g>
</svg>