<?xml version="1.0" encoding="UTF-8"?>
<svg width="560px" height="118px" viewBox="0 0 560 118" version="1.1" xmlns="http://www.w3.org/2000/svg" xmlns:xlink="http://www.w3.org/1999/xlink">
    <title>Artboard Copy 73</title>
    <g id="Artboard-Copy-73" stroke="none" stroke-width="1" fill="none" fill-rule="evenodd">
        <path d="M44.9713839,92.9855824 L72.5017592,92.9855824 C74.6283216,84.4692624 76.1261089,78.4730779 76.9951211,74.9970289 L81.6877873,56.3567161 C86.1197497,38.8895699 74.5184362,27.5061454 51.1854573,27.5061454 C30.5898671,27.5061454 9.77638779,36.7611259 7.03899921,50.7087724 L34.1521814,50.7087724 C34.5432369,46.6678655 44.3272194,45.6678655 47.2749022,45.6678655 C53.1407349,45.6678655 56.1388272,48.0141986 55.487068,50.4908835 C53.4014386,58.5726974 1,47.7534949 1,79.0379358 C1,89.9874902 8.95146207,93.3319155 22.2473495,93.3319155 C33.4576075,93.3319155 42.0608287,91.4213604 47.0141986,84.7734167 C46.4927912,87.1197497 45.811853,89.8571383 44.9713839,92.9855824 Z M30.3291634,73.6935105 C30.3291634,68.3490852 41.5394214,69.7829554 51.7068647,65.4813447 C50.0122908,72.7810476 42.7125879,76.1701954 35.1521814,76.1701954 C32.0237373,76.1701954 30.3291634,75.2577325 30.3291634,73.6935105 Z" id="Shape-Copy-2" fill="#EAE7E3" fill-rule="nonzero"></path>
        <path d="M140.408428,61.5707896 L132.587318,92.9855824 L159.830852,92.9855824 L169.60724,53.7496794 C173.517795,37.8467552 164.65387,26.5061454 144.449335,26.5061454 C135.324707,26.5061454 124.766208,31.7202189 119.291431,37.8467552 L121.507412,28.8524785 L94.2638779,28.8524785 L78.230602,92.9855824 L105.474136,92.9855824 L113.034543,62.874308 C115.380876,53.7496794 122.550227,49.0570133 131.023096,49.0570133 C137.931743,49.0570133 142.363706,53.8800312 140.408428,61.5707896 Z" id="Path-Copy-4" fill="#EAE7E3" fill-rule="nonzero"></path>
        <polygon id="Path-Copy-3" fill="#EAE7E3" fill-rule="nonzero" points="165.628647 92.9855824 192.872181 92.9855824 208.905457 28.8524785 181.661923 28.8524785"></polygon>
        <path d="M254.98197,57.5298827 L246.118045,92.9855824 L273.361579,92.9855824 L281.313041,60.9190304 C283.137967,53.4889757 288.612744,49.0570133 295.130336,49.0570133 C298.780187,49.0570133 302.690743,51.7944018 300.865817,59.0941047 L292.392947,92.9855824 L319.636481,92.9855824 L330.064628,51.4033463 C333.453776,38.1074589 324.198796,26.5061454 307.383409,26.5061454 C298.128428,26.5061454 289.655559,30.2863487 284.702189,37.1949961 C282.355856,30.2863487 272.318764,26.5061454 262.80308,26.5061454 C253.417748,26.5061454 245.07523,31.4595152 240.512916,37.5860516 L242.728897,28.8524785 L215.485363,28.8524785 L199.452087,92.9855824 L226.695621,92.9855824 L234.907787,59.8762157 C236.472009,53.4889757 242.337842,49.0570133 248.464378,49.0570133 C253.157044,49.0570133 256.285488,52.3158092 254.98197,57.5298827 Z" id="Path-Copy-2" fill="#EAE7E3" fill-rule="nonzero"></path>
        <path d="M368.320031,93.3319155 C396.867083,93.3319155 406.796393,82.2104099 411.689746,70.9983388 L383.781337,70.9983388 C382.217115,74.778542 378.87853,76.6916028 369.623549,76.6916028 C360.759624,76.6916028 355.806255,72.520344 355.936606,66.7848631 L412.770007,66.7848631 C421.071165,46.6204396 409.511212,27.5061454 379.790993,27.5061454 C350.852885,27.5061454 330.387646,42.8001251 330.387646,66.3938076 C330.387646,85.6858795 346.94233,93.3319155 368.320031,93.3319155 Z M388.654918,52.7068647 L360.759624,52.7068647 C362.714902,48.7963096 367.798624,45.0161063 376.7929,45.0161063 C382.789085,45.0161063 390.088788,46.9713839 388.654918,52.7068647 Z" id="Shape-Copy" fill="#EAE7E3" fill-rule="nonzero"></path>
        <polygon id="Path-Copy" fill="#EAE7E3" points="513.562079 23.9438311 540.805613 23.9438311 545.758983 4 518.515449 4"></polygon>
        <path d="M399.558759,117.255582 C409.799759,117.255582 418.311759,114.329582 423.498759,93.4485824 L439.591759,28.9435824 L433.207759,28.9435824 L417.114759,93.4485824 C412.991759,110.073582 407.139759,111.802582 399.691759,111.802582 C398.095759,111.802582 395.914443,111.802582 393.14781,111.802582 L391.760196,117.255582 C395.185905,117.255582 397.785426,117.255582 399.558759,117.255582 Z" id="Shape" fill="#EAE7E3" fill-rule="nonzero"></path>
        <path d="M469.117759,93.5815824 C489.067759,93.5815824 501.170759,84.4045824 501.170759,73.4985824 C501.170759,49.9575824 453.955759,61.5285824 453.955759,44.9035824 C453.955759,37.8545824 464.728759,32.9335824 477.895759,32.9335824 C492.392759,32.9335824 499.27204,36.7905824 499.53804,45.1695824 L506.091759,45.1695824 C506.357759,34.3965824 495.318759,27.3475824 477.895759,27.3475824 C460.472759,27.3475824 447.571759,35.0615824 447.571759,44.9035824 C447.571759,67.9125824 494.653759,56.2085824 494.653759,73.4985824 C494.653759,82.0105824 484.013759,87.9955824 469.117759,87.9955824 C453.556759,87.9955824 443.683779,82.2905824 444.348779,70.9855824 L437.86685,70.9855824 C437.06885,84.4185824 449.832759,93.5815824 469.117759,93.5815824 Z" id="Path" fill="#EAE7E3" fill-rule="nonzero"></path>
    </g>
</svg>