<?xml version="1.0" encoding="UTF-8"?>
<svg width="460px" height="118px" viewBox="0 0 460 118" version="1.1" xmlns="http://www.w3.org/2000/svg" xmlns:xlink="http://www.w3.org/1999/xlink">
    <title>Artboard</title>
    <g id="Artboard" stroke="none" stroke-width="1" fill="none" fill-rule="evenodd">
        <g id="anıme˙" transform="translate(0.348241, 1.014418)" fill="#EAE7E3" fill-rule="nonzero">
            <path d="M44.9713839,90.9855824 L74.3005472,90.9855824 C72.7363252,87.0750273 74.6916028,78.2111024 75.9951211,72.9970289 L80.6877873,54.3567161 C85.1197497,36.8895699 73.5184362,24.5061454 50.1854573,24.5061454 C29.5898671,24.5061454 9.77638779,33.7611259 7.03899921,47.7087724 L33.5004222,50.1854573 C33.8914777,46.1445504 38.8448475,43.6678655 46.2749022,43.6678655 C52.1407349,43.6678655 55.1388272,46.0141986 54.487068,48.4908835 C52.4014386,56.5726974 0,45.7534949 0,77.0379358 C0,87.9874902 7.95146207,93.3319155 21.2473495,93.3319155 C32.4576075,93.3319155 41.0608287,89.4213604 46.0141986,82.7734167 C45.2320875,86.2929163 44.841032,88.6392493 44.9713839,90.9855824 Z M29.3291634,71.6935105 C29.3291634,66.3490852 40.5394214,67.7829554 50.7068647,63.4813447 C49.0122908,70.7810476 41.7125879,74.1701954 34.1521814,74.1701954 C31.0237373,74.1701954 29.3291634,73.2577325 29.3291634,71.6935105 Z" id="Shape"></path>
            <path d="M139.408428,59.5707896 L131.587318,90.9855824 L158.830852,90.9855824 L168.60724,51.7496794 C172.517795,35.8467552 163.65387,24.5061454 143.449335,24.5061454 C134.324707,24.5061454 123.766208,29.7202189 118.291431,35.8467552 L120.507412,26.8524785 L93.2638779,26.8524785 L77.230602,90.9855824 L104.474136,90.9855824 L112.034543,60.874308 C114.380876,51.7496794 121.550227,47.0570133 130.023096,47.0570133 C136.931743,47.0570133 141.363706,51.8800312 139.408428,59.5707896 Z" id="Path"></path>
            <polygon id="Path" points="164.628647 90.9855824 191.872181 90.9855824 207.905457 26.8524785 180.661923 26.8524785"></polygon>
            <path d="M253.98197,55.5298827 L245.118045,90.9855824 L272.361579,90.9855824 L280.313041,58.9190304 C282.137967,51.4889757 287.612744,47.0570133 294.130336,47.0570133 C297.780187,47.0570133 301.690743,49.7944018 299.865817,57.0941047 L291.392947,90.9855824 L318.636481,90.9855824 L329.064628,49.4033463 C332.453776,36.1074589 323.198796,24.5061454 306.383409,24.5061454 C297.128428,24.5061454 288.655559,28.2863487 283.702189,35.1949961 C281.355856,28.2863487 271.318764,24.5061454 261.80308,24.5061454 C252.417748,24.5061454 244.07523,29.4595152 239.512916,35.5860516 L241.728897,26.8524785 L214.485363,26.8524785 L198.452087,90.9855824 L225.695621,90.9855824 L233.907787,57.8762157 C235.472009,51.4889757 241.337842,47.0570133 247.464378,47.0570133 C252.157044,47.0570133 255.285488,50.3158092 253.98197,55.5298827 Z" id="Path"></path>
            <path d="M367.320031,93.3319155 C395.867083,93.3319155 407.989804,81.0788428 410.596841,69.8685848 L383.353307,68.3043627 C381.789085,72.084566 377.87853,74.6916028 368.623549,74.6916028 C359.759624,74.6916028 354.806255,70.520344 354.936606,64.7848631 L411.770007,64.7848631 C420.894636,45.2320875 408.511212,24.5061454 378.790993,24.5061454 C349.852885,24.5061454 329.387646,40.8001251 329.387646,64.3938076 C329.387646,83.6858795 345.94233,93.3319155 367.320031,93.3319155 Z M387.654918,50.7068647 L359.759624,50.7068647 C361.714902,46.7963096 366.798624,43.0161063 375.7929,43.0161063 C381.789085,43.0161063 389.088788,44.9713839 387.654918,50.7068647 Z" id="Shape"></path>
            <polygon id="Path" points="427.517357 19.9438311 454.760891 19.9438311 459.714261 0 432.470727 0"></polygon>
        </g>
    </g>
</svg>