<?xml version="1.0" encoding="UTF-8"?>
<svg width="560px" height="118px" viewBox="0 0 560 118" version="1.1" xmlns="http://www.w3.org/2000/svg" xmlns:xlink="http://www.w3.org/1999/xlink">
    <title>Artboard Copy 74</title>
    <g id="Artboard-Copy-74" stroke="none" stroke-width="1" fill="none" fill-rule="evenodd">
        <g id="Group" transform="translate(2.000000, 3.000000)" fill="#EAE7E3" fill-rule="nonzero">
            <path d="M25.7559529,89.44 C19.0826196,89.44 13.8521592,88.9633333 10.0645717,88.01 C6.27698427,87.0566667 3.59502296,85.4966667 2.01868782,83.33 C0.442352677,81.1633333 -0.210796452,78.2166667 0.0592404336,74.49 C0.178559058,72.8433333 0.427877681,71.1966667 0.807196305,69.55 L1.40443392,66.69 C2.44944319,61.8366667 4.05967345,58.1533333 6.23512468,55.64 C8.41057591,53.1266667 11.6593144,51.35 15.9813402,50.31 C20.303366,49.27 26.4077123,48.75 34.2943789,48.75 L36.8943789,48.75 C43.0477123,48.75 47.8247426,49.205 51.2254701,50.115 C54.6261975,51.025 57.0312021,52.52 58.4404838,54.6 L58.8304838,54.6 L59.9232187,48.49 C60.2095907,46.93 60.3684766,45.9333333 60.3998762,45.5 C60.5505945,43.42 60.2271599,41.9033333 59.4295724,40.95 C58.6319849,39.9966667 57.3558478,39.3683333 55.6011608,39.065 C53.8464739,38.7616667 51.2357971,38.61 47.7691305,38.61 L45.1691305,38.61 C41.0957971,38.61 37.9833339,38.805 35.8317409,39.195 C33.6801479,39.585 32.1628551,40.1916667 31.2798625,41.015 C30.3968698,41.8383333 29.7719941,42.9866667 29.4052353,44.46 L29.2469757,44.85 L7.66697566,44.85 L8.06827404,42.9 C9.11956324,37.96 10.9712668,34.2333333 13.6233847,31.72 C16.2755026,29.2066667 20.3026711,27.4516667 25.7048903,26.455 C31.1071095,25.4583333 38.7915524,24.96 48.758219,24.96 L51.878219,24.96 C60.1115524,24.96 66.4639695,25.5016667 70.9354704,26.585 C75.4069713,27.6683333 78.6007696,29.64 80.5168653,32.5 C82.4329611,35.36 83.1900512,39.5633333 82.7881359,45.11 C82.6248578,47.3633333 82.0734673,50.7866667 81.1339645,55.38 L74.0613121,88.4 L51.5713121,88.4 L53.2499862,81.38 L52.9899862,81.38 C51.0192679,83.46 49.1264226,85.0633333 47.3114502,86.19 C45.4964778,87.3166667 43.1401518,88.14 40.2424723,88.66 C37.3447927,89.18 33.4259529,89.44 28.4859529,89.44 L25.7559529,89.44 Z M38.8538813,75.53 C43.5338813,75.53 47.0146778,75.335 49.2962708,74.945 C51.5778638,74.555 53.1849633,73.905 54.1175692,72.995 C55.0501751,72.085 55.7124173,70.72 56.1042958,68.9 L56.4396549,67.86 C56.5577212,67.4266667 56.645014,66.82 56.7015334,66.04 C56.7894524,64.8266667 56.4669616,63.895 55.734061,63.245 C55.0011605,62.595 53.5824634,62.14 51.4779699,61.88 C49.3734763,61.62 46.2412296,61.49 42.0812296,61.49 L40.6512296,61.49 C35.9712296,61.49 32.4671964,61.7066667 30.1391301,62.14 C27.8110638,62.5733333 26.1807277,63.245 25.2481218,64.155 C24.3155159,65.065 23.6532737,66.43 23.2613952,68.25 L23.0560361,69.29 L22.8318372,70.59 C22.7376383,71.89 23.1405158,72.9083333 24.0404697,73.645 C24.9404237,74.3816667 26.4426474,74.88 28.547141,75.14 C30.6516345,75.4 33.6538813,75.53 37.5538813,75.53 L38.8538813,75.53 Z" id="Shape"></path>
            <path d="M92.6728599,26 L115.55286,26 L113.286368,35.75 L113.546368,35.75 C115.647712,33.0633333 117.903237,30.94 120.312943,29.38 C122.722648,27.82 125.534287,26.6933333 128.74786,26 C131.961433,25.3066667 135.864886,24.96 140.458219,24.96 L141.628219,24.96 C148.388219,24.96 153.757786,25.61 157.736921,26.91 C161.716055,28.21 164.567584,30.42 166.291506,33.54 C168.015429,36.66 168.682712,40.9066667 168.293357,46.28 C168.130079,48.5333333 167.696755,51.5233333 166.993384,55.25 L159.781312,88.4 L136.901312,88.4 L143.796865,56.03 C144.188743,54.21 144.431782,52.65 144.525981,51.35 C144.708099,48.8366667 144.368021,46.9516667 143.505746,45.695 C142.643472,44.4383333 141.231368,43.5933333 139.269434,43.16 C137.307501,42.7266667 134.549867,42.51 130.996534,42.51 L129.566534,42.51 C125.059867,42.51 121.425521,43.03 118.663495,44.07 C115.901469,45.11 113.771861,46.6916667 112.274669,48.815 C110.777477,50.9383333 109.640143,53.7766667 108.862666,57.33 L102.191312,88.4 L79.3113121,88.4 L92.6728599,26 Z" id="Path"></path>
            <polygon id="Path" points="165.031312 88.4 178.39286 26 201.27286 26 187.911312 88.4"></polygon>
            <path d="M206.91286,26 L229.79286,26 L227.526368,35.75 L227.786368,35.75 C230.371285,32.37 233.63949,29.7266667 237.590981,27.82 C241.542473,25.9133333 246.508219,24.96 252.488219,24.96 L254.048219,24.96 C261.328219,24.96 266.732957,26.0216667 270.262432,28.145 C273.791907,30.2683333 275.94728,33.7133333 276.72855,38.48 L276.85855,38.48 C279.611773,33.9733333 283.258357,30.5933333 287.798302,28.34 C292.338247,26.0866667 297.988219,24.96 304.748219,24.96 L306.178219,24.96 C312.331552,24.96 317.162593,25.5666667 320.671341,26.78 C324.180088,27.9933333 326.654177,30.03 328.093606,32.89 C329.533035,35.75 330.070631,39.6933333 329.706396,44.72 C329.536838,47.06 328.979167,50.57 328.033384,55.25 L320.951312,88.4 L298.071312,88.4 L305.106285,55.9 C305.498163,54.08 305.741202,52.52 305.835401,51.22 C306.004959,48.88 305.723601,47.0816667 304.991326,45.825 C304.259052,44.5683333 303.130185,43.7016667 301.604724,43.225 C300.079264,42.7483333 298.016534,42.51 295.416534,42.51 L294.116534,42.51 C289.696534,42.51 286.260327,42.9866667 283.807915,43.94 C281.355502,44.8933333 279.535507,46.3883333 278.347929,48.425 C277.16035,50.4616667 276.171543,53.3433333 275.381506,57.07 L268.691312,88.4 L245.811312,88.4 L252.716285,55.9 C253.064204,54.6866667 253.304103,53.17 253.435981,51.35 C253.611819,48.9233333 253.335171,47.06 252.606036,45.76 C251.876902,44.46 250.769701,43.5933333 249.284434,43.16 C247.799167,42.7266667 245.799867,42.51 243.286534,42.51 L241.986534,42.51 C237.479867,42.51 234.021994,42.9866667 231.612915,43.94 C229.203836,44.8933333 227.38541,46.3666667 226.157639,48.36 C224.929867,50.3533333 223.914683,53.3 223.112086,57.2 L216.431312,88.4 L193.551312,88.4 L206.91286,26 Z" id="Path"></path>
            <path d="M362.265953,89.44 C353.685953,89.44 346.948246,88.8333333 342.052831,87.62 C337.157417,86.4066667 333.612555,84.1966667 331.418246,80.99 C329.223937,77.7833333 328.343439,73.19 328.776754,67.21 C329.021672,63.83 329.461276,60.7533333 330.095567,57.98 L330.534545,55.51 C332.375871,46.8433333 334.926865,40.3433333 338.187528,36.01 C341.448191,31.6766667 345.755139,28.7516667 351.108371,27.235 C356.461603,25.7183333 363.818219,24.96 373.178219,24.96 L377.208219,24.96 C385.268219,24.96 391.705733,25.5233333 396.52076,26.65 C401.335788,27.7766667 404.849876,29.8133333 407.063026,32.76 C409.276175,35.7066667 410.191211,39.8233333 409.808136,45.11 C409.626018,47.6233333 409.283127,49.9633333 408.779462,52.13 L406.77297,61.88 L351.65297,61.88 L351.242252,63.96 C350.888053,65.26 350.679554,66.3433333 350.616754,67.21 C350.453476,69.4633333 350.874254,71.1316667 351.879089,72.215 C352.883923,73.2983333 354.392113,74.0133333 356.40366,74.36 C358.415207,74.7066667 361.370981,74.88 365.270981,74.88 L367.740981,74.88 C371.987647,74.88 375.233251,74.6416667 377.47779,74.165 C379.72233,73.6883333 381.335709,72.9516667 382.317928,71.955 C383.300147,70.9583333 383.987196,69.55 384.379075,67.73 L384.397915,67.47 L405.847915,67.47 L405.446616,69.42 C404.277261,74.7933333 402.180631,78.91 399.156727,81.77 C396.132822,84.63 392.045051,86.6233333 386.893412,87.75 C381.741772,88.8766667 375.005953,89.44 366.685953,89.44 L362.265953,89.44 Z M387.74018,50.05 L388.169738,47.71 C388.387031,47.1033333 388.536497,46.2366667 388.618136,45.11 C388.743734,43.3766667 388.40617,42.055 387.605443,41.145 C386.804715,40.235 385.443481,39.585 383.521741,39.195 C381.600001,38.805 378.862464,38.61 375.30913,38.61 L372.70913,38.61 C368.115797,38.61 364.602344,38.9566667 362.168771,39.65 C359.735199,40.3433333 357.941893,41.47 356.788854,43.03 C355.635815,44.59 354.729591,46.93 354.07018,50.05 L387.74018,50.05 Z" id="Shape"></path>
            <path d="M396.880511,110.63 C394.540511,110.63 392.726791,110.543333 391.439322,110.37 L392.428467,105.69 C393.802573,105.863333 395.269627,105.95 396.829627,105.95 C398.82296,105.95 400.41122,105.56 401.594406,104.78 C402.777592,104 403.784931,102.656667 404.616422,100.75 C405.447914,98.8433333 406.258678,96.0266667 407.048715,92.3 L421.21286,26 L427.45286,26 L413.102196,93.08 C412.175253,97.5 411.057389,100.966667 409.748605,103.48 C408.43982,105.993333 406.769608,107.813333 404.737969,108.94 C402.70633,110.066667 400.087177,110.63 396.880511,110.63 Z" id="Path"></path>
            <path d="M455.185953,89.44 C446.17262,89.44 439.372739,89.0933333 434.786312,88.4 C430.199885,87.7066667 427.00075,86.4066667 425.188909,84.5 C423.377067,82.5933333 422.606165,79.7766667 422.876202,76.05 C422.957841,74.9233333 423.10134,73.84 423.306699,72.8 C423.512058,71.76 423.742224,70.6766667 423.997196,69.55 L430.107196,69.55 C429.634931,71.2833333 429.329719,73.1033333 429.191561,75.01 C428.990603,77.7833333 429.598218,79.8633333 431.014406,81.25 C432.430594,82.6366667 435.028085,83.5683333 438.806878,84.045 C442.585672,84.5216667 448.288402,84.76 455.915069,84.76 L460.465069,84.76 C467.571736,84.76 472.998135,84.3266667 476.744268,83.46 C480.490401,82.5933333 483.164503,81.2716667 484.766575,79.495 C486.368646,77.7183333 487.502528,75.2266667 488.168218,72.02 C488.646764,70.2 488.936276,68.5966667 489.036754,67.21 C489.206312,64.87 488.576718,63.0933333 487.14797,61.88 C485.719222,60.6666667 483.072118,59.8216667 479.206658,59.345 C475.341197,58.8683333 469.511607,58.5866667 461.717887,58.5 C453.230834,58.4133333 446.78233,58.0016667 442.372376,57.265 C437.962422,56.5283333 434.950438,55.3366667 433.336423,53.69 C431.722408,52.0433333 431.0253,49.7033333 431.245097,46.67 C431.345576,45.2833333 431.712961,43.2033333 432.347252,40.43 C433.162409,36.3566667 434.623486,33.2366667 436.730484,31.07 C438.837482,28.9033333 442.157188,27.3433333 446.6896,26.39 C451.222013,25.4366667 457.691552,24.96 466.098219,24.96 L469.478219,24.96 C477.278219,24.96 483.273293,25.35 487.46344,26.13 C491.653587,26.91 494.609678,28.275 496.331713,30.225 C498.053748,32.175 498.786027,34.9266667 498.52855,38.48 C498.421792,39.9533333 498.10402,41.9466667 497.575235,44.46 L491.725235,44.46 C492.22262,42.38 492.518412,40.69 492.612611,39.39 C492.807289,36.7033333 492.2182,34.6666667 490.845346,33.28 C489.472492,31.8933333 487.094807,30.9183333 483.712294,30.355 C480.32978,29.7916667 475.388523,29.51 468.888523,29.51 L465.638523,29.51 C458.44519,29.51 453.003403,29.8566667 449.313164,30.55 C445.622924,31.2433333 443.004715,32.3916667 441.458537,33.995 C439.912358,35.5983333 438.809563,37.96 438.150153,41.08 C437.608808,43.7666667 437.325576,45.2833333 437.300456,45.63 C437.143458,47.7966667 437.740709,49.4216667 439.09221,50.505 C440.443711,51.5883333 442.965525,52.3683333 446.657652,52.845 C450.349779,53.3216667 455.91937,53.6033333 463.366423,53.69 C472.200143,53.7766667 478.88698,54.1883333 483.426934,54.925 C487.966888,55.6616667 491.105732,56.8966667 492.843467,58.63 C494.581202,60.3633333 495.330751,62.8766667 495.092113,66.17 C494.985355,67.6433333 494.667583,69.6366667 494.138798,72.15 C493.205576,76.6566667 491.609475,80.145 489.350497,82.615 C487.091519,85.085 483.671017,86.84 479.088992,87.88 C474.506966,88.92 468.055953,89.44 459.735953,89.44 L455.185953,89.44 Z" id="Path"></path>
            <polygon id="Path" points="510.615733 17.68 514.496838 5.68434189e-14 537.376838 5.68434189e-14 533.625733 17.68"></polygon>
        </g>
    </g>
</svg>