<?xml version="1.0" encoding="UTF-8"?>
<svg width="560px" height="118px" viewBox="0 0 560 118" version="1.1" xmlns="http://www.w3.org/2000/svg" xmlns:xlink="http://www.w3.org/1999/xlink">
    <title>Artboard Copy 72</title>
    <g id="Artboard-Copy-72" stroke="none" stroke-width="1" fill="none" fill-rule="evenodd">
        <g id="Group" transform="translate(0.000000, 3.000000)">
            <path d="M44.9713839,88.9855824 L74.3005472,88.9855824 C72.7363252,85.0750273 74.6916028,76.2111024 75.9951211,70.9970289 L80.6877873,52.3567161 C85.1197497,34.8895699 73.5184362,23.5061454 50.1854573,23.5061454 C29.5898671,23.5061454 9.77638779,31.7611259 7.03899921,45.7087724 L34.1521814,45.7087724 C34.5432369,41.6678655 43.3272194,41.6678655 46.2749022,41.6678655 C52.1407349,41.6678655 55.1388272,44.0141986 54.487068,46.4908835 C52.4014386,54.5726974 0,43.7534949 0,75.0379358 C0,85.9874902 7.95146207,89.3319155 21.2473495,89.3319155 C32.4576075,89.3319155 41.0608287,87.4213604 46.0141986,80.7734167 C45.2320875,84.2929163 44.841032,86.6392493 44.9713839,88.9855824 Z M29.3291634,69.6935105 C29.3291634,64.3490852 40.5394214,65.7829554 50.7068647,61.4813447 C49.0122908,68.7810476 41.7125879,72.1701954 34.1521814,72.1701954 C31.0237373,72.1701954 29.3291634,71.2577325 29.3291634,69.6935105 Z" id="Shape-Copy-2" fill="#EAE7E3" fill-rule="nonzero"></path>
            <path d="M139.408428,57.5707896 L131.587318,88.9855824 L158.830852,88.9855824 L168.60724,49.7496794 C172.517795,33.8467552 163.65387,22.5061454 143.449335,22.5061454 C134.324707,22.5061454 123.766208,27.7202189 118.291431,33.8467552 L120.507412,24.8524785 L93.2638779,24.8524785 L77.230602,88.9855824 L104.474136,88.9855824 L112.034543,58.874308 C114.380876,49.7496794 121.550227,45.0570133 130.023096,45.0570133 C136.931743,45.0570133 141.363706,49.8800312 139.408428,57.5707896 Z" id="Path-Copy-4" fill="#EAE7E3" fill-rule="nonzero"></path>
            <polygon id="Path-Copy-3" fill="#EAE7E3" fill-rule="nonzero" points="164.628647 88.9855824 191.872181 88.9855824 207.905457 24.8524785 180.661923 24.8524785"></polygon>
            <path d="M253.98197,53.5298827 L245.118045,88.9855824 L272.361579,88.9855824 L280.313041,56.9190304 C282.137967,49.4889757 287.612744,45.0570133 294.130336,45.0570133 C297.780187,45.0570133 301.690743,47.7944018 299.865817,55.0941047 L291.392947,88.9855824 L318.636481,88.9855824 L329.064628,47.4033463 C332.453776,34.1074589 323.198796,22.5061454 306.383409,22.5061454 C297.128428,22.5061454 288.655559,26.2863487 283.702189,33.1949961 C281.355856,26.2863487 271.318764,22.5061454 261.80308,22.5061454 C252.417748,22.5061454 244.07523,27.4595152 239.512916,33.5860516 L241.728897,24.8524785 L214.485363,24.8524785 L198.452087,88.9855824 L225.695621,88.9855824 L233.907787,55.8762157 C235.472009,49.4889757 241.337842,45.0570133 247.464378,45.0570133 C252.157044,45.0570133 255.285488,48.3158092 253.98197,53.5298827 Z" id="Path-Copy-2" fill="#EAE7E3" fill-rule="nonzero"></path>
            <path d="M367.320031,89.3319155 C395.867083,89.3319155 405.796393,78.2104099 410.689746,66.9983388 L382.781337,66.9983388 C381.217115,70.778542 377.87853,72.6916028 368.623549,72.6916028 C359.759624,72.6916028 354.806255,68.520344 354.936606,62.7848631 L411.770007,62.7848631 C420.894636,43.2320875 408.511212,23.5061454 378.790993,23.5061454 C349.852885,23.5061454 329.387646,38.8001251 329.387646,62.3938076 C329.387646,81.6858795 345.94233,89.3319155 367.320031,89.3319155 Z M387.654918,48.7068647 L359.759624,48.7068647 C361.714902,44.7963096 366.798624,41.0161063 375.7929,41.0161063 C381.789085,41.0161063 389.088788,42.9713839 387.654918,48.7068647 Z" id="Shape-Copy" fill="#EAE7E3" fill-rule="nonzero"></path>
            <path d="M490.193276,24.5061454 C499.062312,24.5061454 506.616964,26.4475001 512.114434,29.9537603 C516.656298,32.8505396 519.761406,36.8255699 520.92381,41.623143 L520.92381,41.623143 L498.499054,41.623143 C498.21644,40.187566 497.458813,38.8631192 496.206165,37.8192452 C494.761557,36.6154051 492.581681,35.7573104 489.541516,35.7573104 C487.19064,35.7573104 485.047942,36.2991481 483.495528,37.1459194 C482.561054,37.6556324 481.823092,38.2823156 481.310231,38.9640108 C480.688636,39.7902345 480.372165,40.7073816 480.372165,41.6678655 C480.372165,42.7851502 480.762929,43.7619473 481.527846,44.6165026 C482.136025,45.2959516 483.023536,45.9069975 484.17805,46.4231837 C486.43423,47.4319276 489.878863,48.13673 493.786839,48.9065059 C500.080509,50.1462051 507.702053,51.5702043 512.864317,55.4205888 C516.122011,57.8504095 518.30455,61.3137464 518.30455,66.4347146 C518.30455,72.8482174 515.015334,78.7311144 508.726406,82.901897 C502.699233,86.8990846 493.990407,89.3319155 482.763221,89.3319155 C472.556342,89.3319155 464.085528,86.9784978 458.057575,82.9872873 C452.765546,79.4833441 449.390961,74.7076907 448.539746,69.2168256 L448.539746,69.2168256 L470.494964,69.2168256 C470.582067,69.783912 470.736756,70.3677761 470.977023,70.9472385 C471.440617,72.065308 472.217829,73.1732263 473.456219,74.10626 C475.153468,75.3850095 477.812753,76.3861766 481.98111,76.3861766 C484.990735,76.3861766 487.479937,75.842315 489.236635,74.9897997 C490.341186,74.4537674 491.186466,73.7854689 491.770213,73.0548622 C492.487791,72.1567551 492.845035,71.1505449 492.845035,70.084566 C492.845035,68.8870317 492.44227,67.844347 491.674803,66.9299606 C491.027299,66.1585029 490.082062,65.4709623 488.859268,64.8871185 C486.405769,63.715653 482.672771,62.9092384 478.511165,62.0429051 C472.434788,60.7779683 465.348952,59.3743649 460.564335,55.9094435 C457.569492,53.7406394 455.564409,50.7006401 455.564409,46.2301798 C455.564409,40.1957659 458.918271,34.669492 465.01211,30.7225929 C470.967749,26.8652039 479.488066,24.5061454 490.193276,24.5061454 Z" id="Path" stroke="#EAE7E3" stroke-width="4" fill-rule="nonzero"></path>
            <polygon id="Path-Copy" fill="#EAE7E3" points="527.562079 19.9438311 554.805613 19.9438311 559.758983 0 532.515449 0"></polygon>
            <path d="M450.593626,26.8524785 L435.962404,85.5024189 C433.682817,94.6207689 429.325004,100.633761 423.829691,104.471666 C416.816106,109.369927 408.030474,110.752431 399.579249,110.752431 L399.579249,110.752431 L389.44968,110.752431 L392.736345,95.0264894 L398.797138,95.0264894 C401.986165,95.0264894 405.443533,94.120603 408.33502,91.6088065 C410.588844,89.6509395 412.527355,86.69537 413.642516,82.3002577 L413.642516,82.3002577 L427.47274,26.8524785 L450.593626,26.8524785 Z" id="Shape" stroke="#EAE7E3" stroke-width="4" fill-rule="nonzero"></path>
        </g>
    </g>
</svg>