<svg xmlns="http://www.w3.org/2000/svg" viewBox="0 0 24 24">
  <defs>
    <filter id="filter-1" width="100%" height="100%" x="0%" y="0%" filterUnits="objectBoundingBox">
      <feGaussianBlur in="SourceGraphic"/>
    </filter>
  </defs>
  <g id="copy" fill="none" fill-rule="evenodd">
    <path id="Shape" fill="#FFFFFF" fill-rule="nonzero" d="M15.25 16.25v.125a2.875 2.875 0 0 1-2.706 2.87l-.169.005h-4a2.875 2.875 0 0 1-2.87-2.706l-.005-.169v-5a2.875 2.875 0 0 1 2.706-2.87l.169-.005H8.5v-.125a2.875 2.875 0 0 1 2.706-2.87l.169-.005h4a2.875 2.875 0 0 1 2.87 2.706l.005.169v5a2.875 2.875 0 0 1-2.706 2.87l-.169.005h-.125zm-2.875-6h-4c-.58 0-1.057.439-1.118 1.002l-.007.123v5c0 .58.439 1.057 1.002 1.118l.123.007h4c.58 0 1.057-.439 1.118-1.002l.007-.123v-5c0-.58-.439-1.057-1.002-1.118l-.123-.007zm2.875 4.25h.125c.58 0 1.057-.439 1.118-1.002l.007-.123v-5c0-.58-.439-1.057-1.002-1.118l-.123-.007h-4c-.58 0-1.057.439-1.118 1.002l-.007.123V8.5h2.125a2.875 2.875 0 0 1 2.87 2.706l.005.169V14.5z" filter="url(#filter-1)"/>
  </g>
</svg>
