<svg xmlns="http://www.w3.org/2000/svg" viewBox="0 0 24 24" class="icon">
  <g id="github" fill="none" fill-rule="evenodd">
    <path id="Path" fill="#FFFFFF" d="M12.007 4C7.579 4 4 7.606 4 12.066a8.06 8.06 0 0 0 5.475 7.652c.397.08.543-.173.543-.387 0-.187-.013-.828-.013-1.496-2.227.481-2.691-.961-2.691-.961-.358-.935-.888-1.175-.888-1.175-.73-.495.053-.495.053-.495.808.054 1.233.828 1.233.828.715 1.229 1.869.882 2.333.668.066-.52.278-.881.504-1.082-1.777-.187-3.646-.881-3.646-3.98 0-.88.318-1.602.822-2.163-.08-.2-.358-1.028.08-2.136 0 0 .676-.214 2.2.828a7.698 7.698 0 0 1 2.002-.268 7.7 7.7 0 0 1 2.001.268c1.525-1.042 2.2-.828 2.2-.828.438 1.108.16 1.936.08 2.136.517.561.822 1.282.822 2.164 0 3.098-1.869 3.779-3.659 3.98.292.253.544.734.544 1.495 0 1.082-.013 1.95-.013 2.217 0 .214.146.467.543.387A8.06 8.06 0 0 0 20 12.066C20.013 7.606 16.42 4 12.007 4z"/>
  </g>
</svg>
