<svg xmlns="http://www.w3.org/2000/svg" viewBox="0 0 24 24" class="icon">
  <g id="minimize" fill="none" fill-rule="evenodd">
    <path id="Shape" fill="#FFFFFF" fill-rule="nonzero" d="M16.167 6.125a3.375 3.375 0 0 1 3.37 3.19l.005.185v5a3.375 3.375 0 0 1-3.19 3.37l-.185.005H7.833a3.375 3.375 0 0 1-3.37-3.19l-.005-.185v-5a3.375 3.375 0 0 1 3.19-3.37l.185-.005h8.334zm0 1.75H7.833c-.85 0-1.548.653-1.619 1.485l-.006.14v5c0 .85.653 1.548 1.485 1.619l.14.006h8.334c.85 0 1.548-.653 1.619-1.485l.006-.14v-5c0-.85-.653-1.548-1.485-1.619l-.14-.006zM16 12.625v1.75h-6v-1.75h6z"/>
  </g>
</svg>
